<?xml version="1.0" encoding="UTF-8" standalone="no"?>
<!-- Created with Inkscape (http://www.inkscape.org/) -->

<svg
   xmlns:dc="http://purl.org/dc/elements/1.1/"
   xmlns:cc="http://creativecommons.org/ns#"
   xmlns:rdf="http://www.w3.org/1999/02/22-rdf-syntax-ns#"
   xmlns:svg="http://www.w3.org/2000/svg"
   xmlns="http://www.w3.org/2000/svg"
   xmlns:sodipodi="http://sodipodi.sourceforge.net/DTD/sodipodi-0.dtd"
   xmlns:inkscape="http://www.inkscape.org/namespaces/inkscape"
   width="12in"
   height="12in"
   viewBox="0 0 304.8 304.80001"
   version="1.1"
   id="svg949"
   inkscape:version="0.92.2 (unknown)"
   sodipodi:docname="mining-king-no-tools.svg">
  <defs
     id="defs943" />
  <sodipodi:namedview
     id="base"
     pagecolor="#ffffff"
     bordercolor="#666666"
     borderopacity="1.0"
     inkscape:pageopacity="0.0"
     inkscape:pageshadow="2"
     inkscape:zoom="0.45147111"
     inkscape:cx="277.60176"
     inkscape:cy="812.23974"
     inkscape:document-units="mm"
     inkscape:current-layer="layer1"
     showgrid="false"
     units="in"
     inkscape:window-width="1855"
     inkscape:window-height="1056"
     inkscape:window-x="1985"
     inkscape:window-y="24"
     inkscape:window-maximized="1" />
  <metadata
     id="metadata946">
    <rdf:RDF>
      <cc:Work
         rdf:about="">
        <dc:format>image/svg+xml</dc:format>
        <dc:type
           rdf:resource="http://purl.org/dc/dcmitype/StillImage" />
        <dc:title></dc:title>
      </cc:Work>
    </rdf:RDF>
  </metadata>
  <g
     inkscape:label="Layer 1"
     inkscape:groupmode="layer"
     id="layer1"
     transform="translate(0,7.8000168)">
    <path
       id="path1532"
       style="display:inline;fill:#000000;stroke-width:0.12242867"
       d="m 161.37606,113.36478 c 6.91984,-0.26203 9.18845,-0.45353 12.71162,-1.04738 9.09668,-1.53622 17.91574,-4.22019 24.18838,-7.36152 1.62357,-0.81174 3.72268,-2.02498 4.45014,-2.56614 l 0.3926,-0.30545 -0.007,-2.474504 c -0.007,-3.09419 -0.21859,-9.456727 -0.30551,-9.922391 -0.0871,-0.305455 -0.13062,-0.349156 -0.46224,-0.261857 -0.21859,0.03917 -1.75881,0.759337 -3.44342,1.597288 -4.01935,1.9988 -5.64716,2.70142 -8.93738,3.86666 -6.40049,2.26064 -14.98961,4.15906 -22.15951,4.90315 -1.95516,0.218244 -16.67552,0.305454 -19.91985,0.13092 -6.74965,-0.34917 -15.30208,-1.99008 -22.5017,-4.31618 -4.05869,-1.30925 -6.57285,-2.34793 -10.95754,-4.52435 -1.75005,-0.86849 -3.35611,-1.61038 -3.56555,-1.649655 -0.34907,-0.08732 -0.3926,-0.03917 -0.47094,0.261857 -0.0436,0.174539 -0.13057,3.085478 -0.13057,6.428428 l -0.0436,6.079744 0.71555,0.45823 c 5.63281,3.61353 15.0931,7.10225 24.16052,8.91382 3.61352,0.71991 6.71248,1.1522 13.22215,1.82857 0.96441,0.087 10.19255,0.087 13.09992,-0.0348 z m 22.25171,54.14546 c 3.19021,-3.72702 9.67228,-12.19477 9.98695,-13.04715 0.0871,-0.26203 0.13062,-2.06857 0.13062,-6.2661 0,-6.23945 -0.0435,-6.69333 -0.57191,-6.86265 -0.13062,-0.0435 -0.82438,0.0871 -1.5231,0.26203 -0.69816,0.17497 -1.31368,0.30555 -1.36164,0.26203 -0.13062,-0.13057 1.2569,-1.41839 2.9676,-2.83233 2.1079,-1.73699 2.64041,-2.62725 2.38291,-3.98017 -0.0871,-0.34907 -0.17394,-0.71555 -0.26218,-0.80783 -0.26218,-0.30554 -1.45329,-0.17411 -4.77712,0.43613 -9.31526,1.74134 -19.5218,2.80187 -29.48734,3.05936 -2.60549,0.0871 -3.83612,0.13057 -4.06748,0.26202 -0.56323,0.26204 -0.64591,0.75037 -0.6372,3.73129 0.009,3.12918 0.17394,4.41656 0.57627,4.75831 0.34905,0.30555 1.15219,0.21851 3.39537,-0.2185 1.82421,-0.34907 3.07677,-0.5014 3.35164,-0.34907 0.17483,0.0871 0.17483,0.13058 -0.13062,0.43612 -0.17483,0.17497 -1.27431,0.90776 -2.41779,1.62783 -2.89338,1.8155 -3.91898,2.60539 -3.68771,2.83669 0.17393,0.17408 4.71854,1.02126 11.15665,2.11661 4.66089,0.79476 7.84109,1.39218 9.53045,1.79374 1.25689,0.30554 1.33545,0.34907 1.48819,0.69813 0.26189,0.58498 0.62853,3.05927 1.10416,7.11666 0.68072,5.80082 0.83392,6.55101 1.34847,6.55101 0.0871,0 0.75906,-0.70249 1.49693,-1.56237 z m -52.18986,1.27868 c 0.26203,-0.39259 0.34906,-1.03423 0.92081,-5.74405 0.53709,-4.56497 0.91645,-7.04075 1.16523,-7.64087 0.13057,-0.34907 0.2185,-0.39259 1.4882,-0.69814 1.68893,-0.39259 4.86955,-0.99933 9.53045,-1.79365 6.74225,-1.14776 10.9995,-1.95949 11.17446,-2.13411 0.2186,-0.21851 -1.57977,-1.50997 -4.44056,-3.24696 -0.80696,-0.4927 -2.0118,-1.25246 -2.67521,-1.69328 -1.1609,-0.77213 -1.20016,-0.8113 -1.1347,-1.17831 0.0435,-0.2185 0.75907,-1.75439 1.60608,-3.43898 0.84699,-1.68458 1.53617,-3.12908 1.5318,-3.21205 0,-0.0871 -0.087,-0.17411 -0.174,-0.17411 -0.087,0 -0.6198,-0.0436 -1.1958,-0.13057 -0.57192,-0.087 -2.66651,-0.21848 -4.6522,-0.34907 -9.42268,-0.65896 -14.87528,-1.33978 -22.95253,-2.87595 -2.50503,-0.47529 -3.49573,-0.56321 -3.77935,-0.30554 -0.26203,0.2185 -0.48485,1.26997 -0.39259,1.7544 0.21849,0.95136 0.97322,1.87653 2.88466,3.4564 1.33116,1.09978 2.56178,2.25632 2.56178,2.41336 0,0.17496 -0.21851,0.13057 -1.4358,-0.21851 -0.65896,-0.17409 -1.25691,-0.30554 -1.4358,-0.26203 -0.57626,0.13057 -0.61544,0.58932 -0.61544,6.99061 0,5.83181 0,5.88116 0.26203,6.42757 0.75908,1.53181 10.90524,14.3241 11.36128,14.3241 0.087,0 0.26204,-0.13057 0.34908,-0.26203 z m 21.41672,2.06866 c -0.0871,-0.26204 0.0258,-0.39259 0.81565,-0.92517 0.96451,-0.62414 2.62725,-1.15654 3.34731,-1.07794 0.85569,0.087 3.50009,1.56237 3.50009,1.94199 0,0.17497 -0.73731,0.13057 -2.0206,-0.13058 -1.4882,-0.30553 -2.51382,-0.30553 -3.71396,-0.0175 -1.54922,0.39259 -1.85044,0.43611 -1.92894,0.2185 z m 5.55339,14.61301 c 2.51374,-0.55885 9.37254,-2.27373 11.53671,-2.88909 l 1.89845,-0.54145 0.8383,-0.82087 c 1.78496,-1.75005 4.36412,-5.09563 4.36412,-5.66249 0,-0.26203 -1.61038,-3.43899 -3.45637,-6.79066 l -1.27875,-2.32614 h -15.70621 -15.7067 l -1.34414,2.44836 c -1.79809,3.27751 -3.39971,6.41486 -3.39971,6.66669 0,0.3926 2.21262,3.41714 4.01942,5.47751 0.39259,0.43612 0.8557,0.83394 1.10849,0.93388 1.15211,0.46222 14.29268,3.85359 14.98306,3.86665 0.26219,0.004 1.21768,-0.17496 2.14282,-0.34907 z m -1.94206,91.68702 c -0.70249,-1.28303 -2.08169,-4.36938 -6.90453,-15.46967 -5.36886,-12.35279 -10.09739,-23.15939 -10.74199,-24.5472 -0.63721,-1.37036 -0.7286,-1.46202 -4.15471,-4.12416 -8.09334,-6.28794 -20.17687,-15.09745 -20.71283,-15.10008 -0.30554,0 -9.54359,-7.14546 -10.87719,-8.39279 -0.43613,-0.3926 -1.7195,-1.45765 -2.86733,-2.3479 l -2.090416,-1.62349 -0.08706,-5.90692 c -0.08703,-5.77861 -0.26203,-9.19966 -0.462232,-9.46943 -0.04354,-0.087 -0.537097,-0.34907 -1.056173,-0.63285 -0.519687,-0.26203 -3.03307,-1.64523 -5.578227,-3.05057 l -4.629126,-2.54863 0.005,-4.77441 c 0.0051,-2.62725 0.04354,-9.0173 0.08703,-14.2019 l 0.08706,-9.42712 3.849159,-3.86665 3.849248,-3.86665 -0.01751,-2.02931 -0.0086,-2.02939 -4.970795,-6.0422 c -16.022759,-19.4777 -20.409711,-24.8121 -21.558766,-26.21473 -0.885907,-1.0823 -1.283027,-1.6671 -1.29617,-1.8984 -0.005,-0.17454 -0.501407,-1.09541 -1.195799,-2.17773 -4.792256,-7.481074 -6.379955,-12.265084 -7.555212,-22.765734 -0.130574,-1.213237 -0.305544,-2.919637 -0.392593,-3.796835 -0.08706,-0.87283 -0.218504,-1.719481 -0.262029,-1.872228 -0.08703,-0.218236 -0.02613,-1.745677 0.305545,-6.366417 0.606736,-7.986926 0.550151,-7.474091 0.815655,-7.40431 0.392593,0.08733 0.780837,-0.637204 1.955134,-3.801195 1.750044,-4.73645 4.518223,-9.728188 6.966058,-12.569272 3.626659,-4.211431 14.485143,-15.426065 14.932927,-15.426065 0.305545,0 1.492554,2.313027 4.661858,8.998506 2.321695,4.895731 2.832332,5.837523 4.0848,7.529511 2.422156,3.273136 9.468564,9.304475 10.872944,9.304475 0.58062,0 0.81217,-0.641557 2.66215,-7.407755 3.295,-12.0203 8.79296,-24.162745 13.70396,-30.259941 2.34789,-2.910905 6.82643,-7.701025 8.18806,-8.751489 0.61979,-0.480079 0.65461,-0.488779 1.10414,-0.349152 0.82523,0.261855 5.79741,2.343559 13.8702,5.782967 9.64964,4.111054 11.33031,4.820665 13.56913,5.723616 l 1.75438,0.707017 0.81567,-0.261862 c 1.58814,-0.545537 7.39191,-2.932726 14.90392,-6.128611 6.43716,-2.740695 12.50384,-5.261888 13.41767,-5.580469 l 0.79824,-0.261862 0.56755,0.349159 c 1.74572,1.02558 7.86818,7.740302 10.05904,11.037433 5.11477,7.697543 10.27543,20.190877 13.04709,31.586612 0.26189,1.147783 0.67636,2.487582 0.88162,2.985105 l 0.3926,0.903384 0.46659,-0.08733 c 1.2045,-0.17454 4.76693,-2.884718 8.16926,-6.24955 1.74133,-1.723844 2.68834,-2.823629 3.29499,-3.82739 0.72862,-1.208866 2.36977,-4.440943 4.35109,-8.55898 1.94199,-4.041227 3.34298,-6.673312 3.60038,-6.75841 0.21859,-0.08733 2.16903,1.750033 6.6519,6.287079 4.28128,4.329276 7.39687,7.627705 9.2774,9.818527 2.0293,2.361023 4.6496,7.340546 6.39266,12.141543 0.69815,1.924597 1.00814,2.618496 1.34851,2.998179 0.13062,0.17454 0.26186,0.554244 0.30552,1.287449 0.0435,0.571738 0.34908,3.517523 0.62849,6.549794 0.30554,3.028736 0.55017,5.619306 0.55017,5.754128 0,0.13091 -0.0871,1.29178 -0.26218,2.570489 -0.87284,8.008748 -1.64523,12.72682 -2.49632,15.26546 -1.30053,3.875394 -4.44395,9.819394 -6.4642,12.219694 -0.69381,0.8248 -26.88067,33.83719 -27.6872,34.90389 -0.34906,0.43612 -0.34906,0.46223 -0.34906,2.3217 v 1.88097 l 3.84917,3.86231 3.84923,3.8623 0.0871,14.07924 c 0.0437,8.43206 0.13062,14.13728 0.2186,14.22416 0.0871,0.0871 0.0258,0.21851 -0.17394,0.30554 -0.89028,0.55886 -10.69179,6.23372 -10.92611,6.32277 -0.17483,0.0435 -0.30557,0.2185 -0.34911,0.30554 -0.17483,0.46658 -0.30551,3.43463 -0.39254,8.96272 l -0.0871,5.79132 -1.84608,1.42709 c -1.01689,0.78519 -2.26064,1.81986 -2.76685,2.2955 -0.94276,0.89034 -9.18271,7.03727 -12.8412,9.57945 -6.01299,4.17648 -20.43484,15.00398 -22.13639,16.61701 -0.76779,0.72426 0.30555,-1.61034 -12.31709,27.24026 -4.93405,11.29189 -6.34766,14.49003 -6.45847,14.61301 -0.0437,0.0435 -0.17393,-0.0258 -0.26188,-0.17483 z"
       inkscape:connector-curvature="0" />
  </g>
</svg>
